# xmcd
#
# Track frame offsets:
#	150
#	18050
#	31342
#	50512
#	67460
#	79190
#
# Disc length: 1335 seconds
#
# Revision: 2
# Processed by: cddbd v1.4PL0 Copyright (c) Steve Scherf et al.
# Submitted via: dBpowerAMP V4.0
#
DISCID=49053506
DTITLE=Robinella and the CC Stringband - Morning Dove (sampler)
DYEAR=2003
DGENRE=Bluegrass
TTITLE0=Man Over
TTITLE1=Tenessee Saturday Night
TTITLE2=Dress Me Up, Dress Me Down
TTITLE3=Honey Honey Bee
TTITLE4=Mistakes
TTITLE5=No Saint, No Price
EXTD=
EXTT0=
EXTT1=
EXTT2=
EXTT3=
EXTT4=
EXTT5=
PLAYORDER=
